<svg width="480" height="480" viewBox="0 0 480 480" fill="none" xmlns="http://www.w3.org/2000/svg">
<path d="M367.871 330.186C356.378 340.461 303.65 379.301 205.967 403.592C202.461 404.464 194.882 402.503 192.178 400.9C163.397 377.351 152.482 364.313 145.013 356.613C137.241 348.6 95.1668 296.519 82.2355 249.029C69.3042 201.539 77.541 146.872 100.702 118.516C123.862 90.159 160.098 86.7043 178.28 87.1454C196.462 87.5865 226.664 94.4886 249.477 122.519C258.549 133.666 264.115 143.809 267.364 153.299C276.515 145.844 288.12 139.128 302.599 135.155C350.876 121.906 379.798 144.333 390.046 154.139C400.294 163.945 427.358 195.759 421.962 238.596C416.12 284.978 389.423 310.916 367.871 330.186Z" fill="#F90409"/>
<path fill-rule="evenodd" clip-rule="evenodd" d="M238.397 92.2353C210.867 66.3521 176.355 62.2683 157.127 64.5447C138.26 66.7785 102.882 77.088 82.2545 110.436C71.8915 127.19 66.5731 149.901 66.1436 173.939C65.7129 198.04 70.1847 223.918 79.8548 247.254C89.5489 270.647 106.715 293.876 122.337 311.961C137.874 329.949 152.272 343.289 157.057 347.072C157.866 347.735 160.236 349.674 161.768 350.872C164.832 353.268 169.282 356.632 174.868 360.538C183.649 366.676 195.274 374.179 208.766 381.369C132.807 406.582 92.1365 414.636 74.8337 413.439C71.9175 413.025 69.2175 415.053 68.8032 417.969C68.3889 420.886 70.4171 423.586 73.3333 424C94.1365 425.969 139.953 417.083 222.138 388.063C235.927 394.517 251.181 400.248 267.056 403.789C324.85 416.678 352.108 416.203 372.22 410.08C376.492 408.779 381.603 406.044 385.476 402.132C389.374 398.195 392.75 392.943 391.105 385.338C389.459 377.732 383.582 371.888 375.892 371.888C372.947 371.888 370.559 374.275 370.559 377.221C370.559 380.167 372.947 382.554 375.892 382.554C377.536 382.554 379.863 383.821 380.679 387.593C381.16 389.813 380.34 392.158 377.896 394.627C375.428 397.12 371.926 399.019 369.114 399.876C351.736 405.166 326.733 406.169 269.378 393.378C258.059 390.853 246.989 387.123 236.514 382.762C329.583 346.922 371.726 300.099 380.665 290.167C381.19 289.584 381.6 289.129 381.899 288.81C385.506 284.967 396.317 271.684 406.255 253.402C416.177 235.149 425.52 211.379 425.52 186.717C425.52 141.169 396.662 112.174 384.492 103.334C372.17 94.3837 335.351 75.2494 286.854 96.2192C274.582 101.525 264.96 107.412 257.431 113.277C252.737 106.742 246.523 99.876 238.397 92.2353ZM163.728 338.748C164.479 339.364 166.874 341.323 168.34 342.47C171.273 344.764 175.569 348.013 180.98 351.796C191.403 359.083 205.907 368.313 222.729 376.523C223.443 376.265 224.157 376.005 224.873 375.742C321.264 340.394 364.202 292.55 372.949 282.803C373.451 282.243 373.841 281.809 374.121 281.51C377.102 278.334 387.379 265.793 396.883 248.308C406.403 230.795 414.853 208.853 414.853 186.717C414.853 145.823 388.815 119.657 378.223 111.964C367.783 104.381 334.978 87.0317 291.087 106.01C279.104 111.192 270.006 116.881 263.115 122.379C269.22 133.916 270.667 144.621 270.667 156.8C270.667 168.732 266.282 177.042 260.542 181.931C257.73 184.326 254.613 185.874 251.629 186.564C248.835 187.211 245.389 187.258 242.558 185.532C230.945 178.454 226.402 163.406 231.532 147.522C231.571 147.367 231.625 147.163 231.697 146.913C231.841 146.411 232.056 145.724 232.365 144.874C232.984 143.173 233.977 140.822 235.521 138.009C238.194 133.139 242.502 126.916 249.334 120.298C245.128 114.291 239.269 107.697 231.09 100.007C206.401 76.7943 175.305 73.1337 158.381 75.1374C141.097 77.1838 109.528 86.6198 91.326 116.047C82.2743 130.681 77.2158 151.338 76.8086 174.129C76.4024 196.857 80.6337 221.271 89.7088 243.17C98.7599 265.012 115.068 287.228 130.409 304.989C145.747 322.746 159.727 335.604 163.728 338.748ZM254.906 129.811C249.957 134.931 246.822 139.59 244.872 143.142C243.606 145.448 242.834 147.298 242.39 148.519C242.168 149.129 242.028 149.583 241.949 149.857L241.734 150.641C237.681 162.995 241.606 172.315 247.91 176.3C248.036 176.315 248.449 176.352 249.225 176.172C250.429 175.894 252.021 175.177 253.625 173.81C256.719 171.176 260 165.975 260 156.8C260 146.695 258.941 138.435 254.906 129.811Z" fill="white"/>
<path d="M255.872 177.549L238.686 175.104C237.593 174.949 236.594 175.711 236.457 176.807L232.992 204.388C232.854 205.484 231.856 206.246 230.762 206.091L203.003 202.142C201.91 201.987 200.912 202.749 200.774 203.845L198.94 218.443C198.527 221.731 200.852 224.774 204.132 225.241L225.951 228.344C228.138 228.655 229.688 230.684 229.413 232.876L220.218 306.066C219.943 308.258 221.493 310.287 223.68 310.598L236.906 312.479C239.093 312.79 241.089 311.266 241.364 309.074L250.559 235.884C250.834 233.692 252.831 232.167 255.018 232.479L276.837 235.582C280.117 236.049 283.112 233.762 283.525 230.474L285.359 215.876C285.496 214.78 284.721 213.765 283.628 213.61L255.869 209.662C254.775 209.506 254 208.491 254.138 207.396L257.603 179.815C257.741 178.719 256.966 177.704 255.872 177.549Z" fill="white"/>
<path d="M244.715 143.908C243.461 146.192 242.617 148.276 242.267 149.212C241.917 150.147 241.772 150.802 241.617 151.315C237.662 163.368 241.446 172.446 247.729 176.393C247.819 176.404 248.28 176.483 249.213 176.267C250.467 175.977 252.076 175.243 253.672 173.883C256.732 171.277 259.917 166.207 259.917 157.258C259.917 147.214 258.867 139.041 254.853 130.489C249.827 135.66 246.666 140.355 244.715 143.908Z" fill="#FB923C"/>
</svg>
